{
	"asset":{
		"generator":"Khronos glTF Blender I/O v4.0.44",
		"version":"2.0"
	},
	"extensionsUsed":[
		"KHR_materials_specular"
	],
	"scene":0,
	"scenes":[
		{
			"name":"Scene",
			"nodes":[
				0,
				1,
				2,
				3,
				4,
				5
			]
		}
	],
	"nodes":[
		{
			"mesh":0,
			"name":"Cas9",
			"rotation":[
				-0.862428605556488,
				0.34066057205200195,
				0.14747023582458496,
				0.3441217541694641
			],
			"translation":[
				78.13153076171875,
				64.14292907714844,
				20.863100051879883
			]
		},
		{
			"mesh":1,
			"name":"DNA_bases",
			"rotation":[
				-0.862428605556488,
				0.34066057205200195,
				0.14747023582458496,
				0.3441217541694641
			],
			"translation":[
				78.13153076171875,
				64.14292907714844,
				20.863100051879883
			]
		},
		{
			"mesh":2,
			"name":"gRNA_bases",
			"rotation":[
				-0.862428605556488,
				0.34066057205200195,
				0.14747023582458496,
				0.3441217541694641
			],
			"translation":[
				78.13153076171875,
				64.14292907714844,
				20.863100051879883
			]
		},
		{
			"mesh":3,
			"name":"DNA_backbone",
			"rotation":[
				-0.862428605556488,
				0.34066057205200195,
				0.14747023582458496,
				0.3441217541694641
			],
			"translation":[
				78.13153076171875,
				64.14292907714844,
				20.863100051879883
			]
		},
		{
			"mesh":4,
			"name":"gRNA_backbone",
			"rotation":[
				-0.862428605556488,
				0.34066057205200195,
				0.14747023582458496,
				0.3441217541694641
			],
			"translation":[
				78.13153076171875,
				64.14292907714844,
				20.863100051879883
			]
		},
		{
			"mesh":5,
			"name":"Cube",
			"scale":[
				-58.44762420654297,
				-58.44762420654297,
				-58.44762420654297
			],
			"translation":[
				0,
				0,
				67.3822250366211
			]
		}
	],
	"materials":[
		{
			"doubleSided":true,
			"name":"Cas9_color",
			"pbrMetallicRoughness":{
				"baseColorFactor":[
					0.8015072345733643,
					0.4316732883453369,
					0.47411948442459106,
					1
				],
				"metallicFactor":0
			}
		},
		{
			"doubleSided":true,
			"extensions":{
				"KHR_materials_specular":{
					"specularColorFactor":[
						0.014181136153638363,
						0.40057694911956787,
						1.0
					]
				}
			},
			"name":"Material_0",
			"pbrMetallicRoughness":{
				"metallicFactor":0
			}
		},
		{
			"doubleSided":true,
			"name":"Material.002",
			"pbrMetallicRoughness":{
				"baseColorFactor":[
					0.5149077773094177,
					0.045185573399066925,
					0.040914423763751984,
					1
				],
				"metallicFactor":0,
				"roughnessFactor":0.5
			}
		},
		{
			"doubleSided":true,
			"name":"Material.001",
			"pbrMetallicRoughness":{
				"baseColorFactor":[
					0.8001565933227539,
					0.005023614037781954,
					0.008646606467664242,
					1
				],
				"metallicFactor":0,
				"roughnessFactor":0.5
			}
		}
	],
	"meshes":[
		{
			"name":"Mesh_7",
			"primitives":[
				{
					"attributes":{
						"COLOR_0":0,
						"POSITION":1,
						"NORMAL":2,
						"TEXCOORD_0":3
					},
					"indices":4,
					"material":0
				}
			]
		},
		{
			"name":"Mesh_5",
			"primitives":[
				{
					"attributes":{
						"COLOR_0":5,
						"POSITION":6,
						"NORMAL":7
					},
					"indices":8,
					"material":1
				}
			]
		},
		{
			"name":"Mesh_4",
			"primitives":[
				{
					"attributes":{
						"COLOR_0":9,
						"POSITION":10,
						"NORMAL":11
					},
					"indices":12,
					"material":2
				}
			]
		},
		{
			"name":"Mesh_2",
			"primitives":[
				{
					"attributes":{
						"COLOR_0":13,
						"POSITION":14,
						"NORMAL":15
					},
					"indices":16,
					"material":1
				}
			]
		},
		{
			"name":"Mesh_1",
			"primitives":[
				{
					"attributes":{
						"COLOR_0":17,
						"POSITION":18,
						"NORMAL":19
					},
					"indices":20,
					"material":3
				}
			]
		},
		{
			"name":"Cube.001",
			"primitives":[
				{
					"attributes":{
						"POSITION":21,
						"NORMAL":22,
						"TEXCOORD_0":23
					},
					"indices":24
				}
			]
		}
	],
	"accessors":[
		{
			"bufferView":0,
			"componentType":5123,
			"count":229229,
			"normalized":true,
			"type":"VEC4"
		},
		{
			"bufferView":1,
			"componentType":5126,
			"count":229229,
			"max":[
				30.79464340209961,
				151.28717041015625,
				31.07185935974121
			],
			"min":[
				-63.52681350708008,
				49.71967697143555,
				-65.89702606201172
			],
			"type":"VEC3"
		},
		{
			"bufferView":2,
			"componentType":5126,
			"count":229229,
			"type":"VEC3"
		},
		{
			"bufferView":3,
			"componentType":5126,
			"count":229229,
			"type":"VEC2"
		},
		{
			"bufferView":4,
			"componentType":5125,
			"count":1348512,
			"type":"SCALAR"
		},
		{
			"bufferView":5,
			"componentType":5123,
			"count":5568,
			"normalized":true,
			"type":"VEC4"
		},
		{
			"bufferView":6,
			"componentType":5126,
			"count":5568,
			"max":[
				9.132007598876953,
				110.60006713867188,
				-16.97350311279297
			],
			"min":[
				-27.42717933654785,
				69.78892517089844,
				-58.24489974975586
			],
			"type":"VEC3"
		},
		{
			"bufferView":7,
			"componentType":5126,
			"count":5568,
			"type":"VEC3"
		},
		{
			"bufferView":8,
			"componentType":5123,
			"count":23088,
			"type":"SCALAR"
		},
		{
			"bufferView":9,
			"componentType":5123,
			"count":27660,
			"normalized":true,
			"type":"VEC4"
		},
		{
			"bufferView":10,
			"componentType":5126,
			"count":27660,
			"max":[
				10.903846740722656,
				140.3589630126953,
				9.634021759033203
			],
			"min":[
				-61.273460388183594,
				39.89857482910156,
				-53.592594146728516
			],
			"type":"VEC3"
		},
		{
			"bufferView":11,
			"componentType":5126,
			"count":27660,
			"type":"VEC3"
		},
		{
			"bufferView":12,
			"componentType":5123,
			"count":112632,
			"type":"SCALAR"
		},
		{
			"bufferView":13,
			"componentType":5123,
			"count":1903,
			"normalized":true,
			"type":"VEC4"
		},
		{
			"bufferView":14,
			"componentType":5126,
			"count":1903,
			"max":[
				10.013298988342285,
				110.73458862304688,
				-13.523783683776855
			],
			"min":[
				-28.728660583496094,
				69.04371643066406,
				-59.1355094909668
			],
			"type":"VEC3"
		},
		{
			"bufferView":15,
			"componentType":5126,
			"count":1903,
			"type":"VEC3"
		},
		{
			"bufferView":16,
			"componentType":5123,
			"count":5220,
			"type":"SCALAR"
		},
		{
			"bufferView":17,
			"componentType":5123,
			"count":8466,
			"normalized":true,
			"type":"VEC4"
		},
		{
			"bufferView":18,
			"componentType":5126,
			"count":8466,
			"max":[
				9.926765441894531,
				139.66204833984375,
				8.714005470275879
			],
			"min":[
				-61.580352783203125,
				39.018131256103516,
				-53.818763732910156
			],
			"type":"VEC3"
		},
		{
			"bufferView":19,
			"componentType":5126,
			"count":8466,
			"type":"VEC3"
		},
		{
			"bufferView":20,
			"componentType":5123,
			"count":23052,
			"type":"SCALAR"
		},
		{
			"bufferView":21,
			"componentType":5126,
			"count":24,
			"max":[
				1,
				1,
				1
			],
			"min":[
				-1,
				-1,
				-1
			],
			"type":"VEC3"
		},
		{
			"bufferView":22,
			"componentType":5126,
			"count":24,
			"type":"VEC3"
		},
		{
			"bufferView":23,
			"componentType":5126,
			"count":24,
			"type":"VEC2"
		},
		{
			"bufferView":24,
			"componentType":5123,
			"count":36,
			"type":"SCALAR"
		}
	],
	"bufferViews":[
		{
			"buffer":0,
			"byteLength":1833832,
			"byteOffset":0,
			"target":34962
		},
		{
			"buffer":0,
			"byteLength":2750748,
			"byteOffset":1833832,
			"target":34962
		},
		{
			"buffer":0,
			"byteLength":2750748,
			"byteOffset":4584580,
			"target":34962
		},
		{
			"buffer":0,
			"byteLength":1833832,
			"byteOffset":7335328,
			"target":34962
		},
		{
			"buffer":0,
			"byteLength":5394048,
			"byteOffset":9169160,
			"target":34963
		},
		{
			"buffer":0,
			"byteLength":44544,
			"byteOffset":14563208,
			"target":34962
		},
		{
			"buffer":0,
			"byteLength":66816,
			"byteOffset":14607752,
			"target":34962
		},
		{
			"buffer":0,
			"byteLength":66816,
			"byteOffset":14674568,
			"target":34962
		},
		{
			"buffer":0,
			"byteLength":46176,
			"byteOffset":14741384,
			"target":34963
		},
		{
			"buffer":0,
			"byteLength":221280,
			"byteOffset":14787560,
			"target":34962
		},
		{
			"buffer":0,
			"byteLength":331920,
			"byteOffset":15008840,
			"target":34962
		},
		{
			"buffer":0,
			"byteLength":331920,
			"byteOffset":15340760,
			"target":34962
		},
		{
			"buffer":0,
			"byteLength":225264,
			"byteOffset":15672680,
			"target":34963
		},
		{
			"buffer":0,
			"byteLength":15224,
			"byteOffset":15897944,
			"target":34962
		},
		{
			"buffer":0,
			"byteLength":22836,
			"byteOffset":15913168,
			"target":34962
		},
		{
			"buffer":0,
			"byteLength":22836,
			"byteOffset":15936004,
			"target":34962
		},
		{
			"buffer":0,
			"byteLength":10440,
			"byteOffset":15958840,
			"target":34963
		},
		{
			"buffer":0,
			"byteLength":67728,
			"byteOffset":15969280,
			"target":34962
		},
		{
			"buffer":0,
			"byteLength":101592,
			"byteOffset":16037008,
			"target":34962
		},
		{
			"buffer":0,
			"byteLength":101592,
			"byteOffset":16138600,
			"target":34962
		},
		{
			"buffer":0,
			"byteLength":46104,
			"byteOffset":16240192,
			"target":34963
		},
		{
			"buffer":0,
			"byteLength":288,
			"byteOffset":16286296,
			"target":34962
		},
		{
			"buffer":0,
			"byteLength":288,
			"byteOffset":16286584,
			"target":34962
		},
		{
			"buffer":0,
			"byteLength":192,
			"byteOffset":16286872,
			"target":34962
		},
		{
			"buffer":0,
			"byteLength":72,
			"byteOffset":16287064,
			"target":34963
		}
	],
	"buffers":[
		{
			"byteLength":16287136,
			"uri":"Cas9.bin"
		}
	]
}
