{
	"asset":{
		"generator":"Khronos glTF Blender I/O v3.6.28",
		"version":"2.0"
	},
	"scene":0,
	"scenes":[
		{
			"name":"Scene",
			"nodes":[
				0,
				1,
				2,
				3,
				4,
				5,
				6
			]
		}
	],
	"nodes":[
		{
			"mesh":0,
			"name":"Mesh_0",
			"translation":[
				-83.9729995727539,
				-52.09349822998047,
				-53.49161911010742
			]
		},
		{
			"mesh":1,
			"name":"Mesh_1",
			"translation":[
				-83.9729995727539,
				-52.09349822998047,
				-53.49161911010742
			]
		},
		{
			"mesh":2,
			"name":"Mesh_2",
			"translation":[
				-83.9729995727539,
				-52.09349822998047,
				-53.49161911010742
			]
		},
		{
			"mesh":3,
			"name":"Mesh_3",
			"translation":[
				-83.9729995727539,
				-52.09349822998047,
				-53.49161911010742
			]
		},
		{
			"mesh":4,
			"name":"Mesh_4",
			"translation":[
				-83.9729995727539,
				-52.09349822998047,
				-53.49161911010742
			]
		},
		{
			"mesh":5,
			"name":"Mesh_5",
			"translation":[
				-83.9729995727539,
				-52.09349822998047,
				-53.49161911010742
			]
		},
		{
			"mesh":6,
			"name":"Mesh_6",
			"translation":[
				-83.9729995727539,
				-52.09349822998047,
				-53.49161911010742
			]
		}
	],
	"materials":[
		{
			"doubleSided":true,
			"name":"Material_0",
			"pbrMetallicRoughness":{
				"metallicFactor":0
			}
		}
	],
	"meshes":[
		{
			"name":"Mesh_0",
			"primitives":[
				{
					"attributes":{
						"COLOR_0":0,
						"POSITION":1,
						"NORMAL":2
					},
					"indices":3,
					"material":0
				}
			]
		},
		{
			"name":"Mesh_1",
			"primitives":[
				{
					"attributes":{
						"COLOR_0":4,
						"POSITION":5,
						"NORMAL":6
					},
					"indices":7,
					"material":0
				}
			]
		},
		{
			"name":"Mesh_2",
			"primitives":[
				{
					"attributes":{
						"COLOR_0":8,
						"POSITION":9,
						"NORMAL":10
					},
					"indices":11,
					"material":0
				}
			]
		},
		{
			"name":"Mesh_3",
			"primitives":[
				{
					"attributes":{
						"COLOR_0":12,
						"POSITION":13,
						"NORMAL":14
					},
					"indices":15,
					"material":0
				}
			]
		},
		{
			"name":"Mesh_4",
			"primitives":[
				{
					"attributes":{
						"COLOR_0":16,
						"POSITION":17,
						"NORMAL":18
					},
					"indices":19,
					"material":0
				}
			]
		},
		{
			"name":"Mesh_5",
			"primitives":[
				{
					"attributes":{
						"COLOR_0":20,
						"POSITION":21,
						"NORMAL":22
					},
					"indices":23,
					"material":0
				}
			]
		},
		{
			"name":"Mesh_6",
			"primitives":[
				{
					"attributes":{
						"COLOR_0":24,
						"POSITION":25,
						"NORMAL":26
					},
					"indices":27,
					"material":0
				}
			]
		}
	],
	"accessors":[
		{
			"bufferView":0,
			"componentType":5123,
			"count":7056,
			"normalized":true,
			"type":"VEC4"
		},
		{
			"bufferView":1,
			"componentType":5126,
			"count":7056,
			"max":[
				120.96958923339844,
				87.87677764892578,
				77.98963928222656
			],
			"min":[
				36.10651779174805,
				34.72785186767578,
				-7.107815742492676
			],
			"type":"VEC3"
		},
		{
			"bufferView":2,
			"componentType":5126,
			"count":7056,
			"type":"VEC3"
		},
		{
			"bufferView":3,
			"componentType":5123,
			"count":19212,
			"type":"SCALAR"
		},
		{
			"bufferView":4,
			"componentType":5123,
			"count":23148,
			"normalized":true,
			"type":"VEC4"
		},
		{
			"bufferView":5,
			"componentType":5126,
			"count":23148,
			"max":[
				120.1360092163086,
				87.1949691772461,
				80.96570587158203
			],
			"min":[
				37.14583206176758,
				35.0775146484375,
				-8.206127166748047
			],
			"type":"VEC3"
		},
		{
			"bufferView":6,
			"componentType":5126,
			"count":23148,
			"type":"VEC3"
		},
		{
			"bufferView":7,
			"componentType":5123,
			"count":94104,
			"type":"SCALAR"
		},
		{
			"bufferView":8,
			"componentType":5123,
			"count":2394,
			"normalized":true,
			"type":"VEC4"
		},
		{
			"bufferView":9,
			"componentType":5126,
			"count":2394,
			"max":[
				100.32193756103516,
				73.7197265625,
				89.50468444824219
			],
			"min":[
				62.12679672241211,
				30.97957420349121,
				13.564814567565918
			],
			"type":"VEC3"
		},
		{
			"bufferView":10,
			"componentType":5126,
			"count":2394,
			"type":"VEC3"
		},
		{
			"bufferView":11,
			"componentType":5123,
			"count":6492,
			"type":"SCALAR"
		},
		{
			"bufferView":12,
			"componentType":5123,
			"count":7824,
			"normalized":true,
			"type":"VEC4"
		},
		{
			"bufferView":13,
			"componentType":5126,
			"count":7824,
			"max":[
				99.47116088867188,
				72.7427749633789,
				88.98703002929688
			],
			"min":[
				62.908756256103516,
				31.683822631835938,
				10.961265563964844
			],
			"type":"VEC3"
		},
		{
			"bufferView":14,
			"componentType":5126,
			"count":7824,
			"type":"VEC3"
		},
		{
			"bufferView":15,
			"componentType":5123,
			"count":32352,
			"type":"SCALAR"
		},
		{
			"bufferView":16,
			"componentType":5123,
			"count":896,
			"normalized":true,
			"type":"VEC4"
		},
		{
			"bufferView":17,
			"componentType":5126,
			"count":896,
			"max":[
				85.72528076171875,
				52.47614288330078,
				46.035552978515625
			],
			"min":[
				71.01756286621094,
				27.957584381103516,
				13.95162582397461
			],
			"type":"VEC3"
		},
		{
			"bufferView":18,
			"componentType":5126,
			"count":896,
			"type":"VEC3"
		},
		{
			"bufferView":19,
			"componentType":5123,
			"count":2412,
			"type":"SCALAR"
		},
		{
			"bufferView":20,
			"componentType":5123,
			"count":3156,
			"normalized":true,
			"type":"VEC4"
		},
		{
			"bufferView":21,
			"componentType":5126,
			"count":3156,
			"max":[
				84.98914337158203,
				51.82296371459961,
				45.14442825317383
			],
			"min":[
				71.50653839111328,
				28.340133666992188,
				12.147286415100098
			],
			"type":"VEC3"
		},
		{
			"bufferView":22,
			"componentType":5126,
			"count":3156,
			"type":"VEC3"
		},
		{
			"bufferView":23,
			"componentType":5123,
			"count":12792,
			"type":"SCALAR"
		},
		{
			"bufferView":24,
			"componentType":5123,
			"count":402912,
			"normalized":true,
			"type":"VEC4"
		},
		{
			"bufferView":25,
			"componentType":5126,
			"count":402912,
			"max":[
				136.46917724609375,
				96.98963165283203,
				114.55199432373047
			],
			"min":[
				31.622867584228516,
				7.3797478675842285,
				-8.238730430603027
			],
			"type":"VEC3"
		},
		{
			"bufferView":26,
			"componentType":5126,
			"count":402912,
			"type":"VEC3"
		},
		{
			"bufferView":27,
			"componentType":5125,
			"count":2417220,
			"type":"SCALAR"
		}
	],
	"bufferViews":[
		{
			"buffer":0,
			"byteLength":56448,
			"byteOffset":0,
			"target":34962
		},
		{
			"buffer":0,
			"byteLength":84672,
			"byteOffset":56448,
			"target":34962
		},
		{
			"buffer":0,
			"byteLength":84672,
			"byteOffset":141120,
			"target":34962
		},
		{
			"buffer":0,
			"byteLength":38424,
			"byteOffset":225792,
			"target":34963
		},
		{
			"buffer":0,
			"byteLength":185184,
			"byteOffset":264216,
			"target":34962
		},
		{
			"buffer":0,
			"byteLength":277776,
			"byteOffset":449400,
			"target":34962
		},
		{
			"buffer":0,
			"byteLength":277776,
			"byteOffset":727176,
			"target":34962
		},
		{
			"buffer":0,
			"byteLength":188208,
			"byteOffset":1004952,
			"target":34963
		},
		{
			"buffer":0,
			"byteLength":19152,
			"byteOffset":1193160,
			"target":34962
		},
		{
			"buffer":0,
			"byteLength":28728,
			"byteOffset":1212312,
			"target":34962
		},
		{
			"buffer":0,
			"byteLength":28728,
			"byteOffset":1241040,
			"target":34962
		},
		{
			"buffer":0,
			"byteLength":12984,
			"byteOffset":1269768,
			"target":34963
		},
		{
			"buffer":0,
			"byteLength":62592,
			"byteOffset":1282752,
			"target":34962
		},
		{
			"buffer":0,
			"byteLength":93888,
			"byteOffset":1345344,
			"target":34962
		},
		{
			"buffer":0,
			"byteLength":93888,
			"byteOffset":1439232,
			"target":34962
		},
		{
			"buffer":0,
			"byteLength":64704,
			"byteOffset":1533120,
			"target":34963
		},
		{
			"buffer":0,
			"byteLength":7168,
			"byteOffset":1597824,
			"target":34962
		},
		{
			"buffer":0,
			"byteLength":10752,
			"byteOffset":1604992,
			"target":34962
		},
		{
			"buffer":0,
			"byteLength":10752,
			"byteOffset":1615744,
			"target":34962
		},
		{
			"buffer":0,
			"byteLength":4824,
			"byteOffset":1626496,
			"target":34963
		},
		{
			"buffer":0,
			"byteLength":25248,
			"byteOffset":1631320,
			"target":34962
		},
		{
			"buffer":0,
			"byteLength":37872,
			"byteOffset":1656568,
			"target":34962
		},
		{
			"buffer":0,
			"byteLength":37872,
			"byteOffset":1694440,
			"target":34962
		},
		{
			"buffer":0,
			"byteLength":25584,
			"byteOffset":1732312,
			"target":34963
		},
		{
			"buffer":0,
			"byteLength":3223296,
			"byteOffset":1757896,
			"target":34962
		},
		{
			"buffer":0,
			"byteLength":4834944,
			"byteOffset":4981192,
			"target":34962
		},
		{
			"buffer":0,
			"byteLength":4834944,
			"byteOffset":9816136,
			"target":34962
		},
		{
			"buffer":0,
			"byteLength":9668880,
			"byteOffset":14651080,
			"target":34963
		}
	],
	"buffers":[
		{
			"byteLength":24319960,
			"uri":"untitled.bin"
		}
	]
}
